<svg width="56" height="56" viewBox="0 0 56 56" fill="none" xmlns="http://www.w3.org/2000/svg">
<path d="M37.989 25.011C38.152 25.1736 38.2813 25.3667 38.3695 25.5793C38.4577 25.7919 38.5031 26.0198 38.5031 26.25C38.5031 26.4802 38.4577 26.7081 38.3695 26.9207C38.2813 27.1333 38.152 27.3264 37.989 27.489L27.489 37.989C27.3264 38.152 27.1333 38.2813 26.9207 38.3695C26.7081 38.4577 26.4802 38.5031 26.25 38.5031C26.0198 38.5031 25.7919 38.4577 25.5793 38.3695C25.3667 38.2813 25.1736 38.152 25.011 37.989L19.761 32.739C19.5983 32.5763 19.4692 32.3831 19.3812 32.1705C19.2931 31.958 19.2478 31.7301 19.2478 31.5C19.2478 31.2699 19.2931 31.042 19.3812 30.8295C19.4692 30.6169 19.5983 30.4237 19.761 30.261C20.0896 29.9324 20.5353 29.7478 21 29.7478C21.2301 29.7478 21.458 29.7931 21.6705 29.8812C21.8831 29.9692 22.0763 30.0983 22.239 30.261L26.25 34.2755L35.511 25.011C35.6736 24.848 35.8667 24.7187 36.0793 24.6305C36.2919 24.5423 36.5198 24.4969 36.75 24.4969C36.9802 24.4969 37.2081 24.5423 37.4207 24.6305C37.6333 24.7187 37.8264 24.848 37.989 25.011Z" fill="#C11717"/>
<path d="M12.25 0C12.7141 0 13.1592 0.184374 13.4874 0.512563C13.8156 0.840752 14 1.28587 14 1.75V3.5H42V1.75C42 1.28587 42.1844 0.840752 42.5126 0.512563C42.8408 0.184374 43.2859 0 43.75 0C44.2141 0 44.6592 0.184374 44.9874 0.512563C45.3156 0.840752 45.5 1.28587 45.5 1.75V3.5H49C50.8565 3.5 52.637 4.2375 53.9497 5.55025C55.2625 6.86301 56 8.64348 56 10.5V49C56 50.8565 55.2625 52.637 53.9497 53.9497C52.637 55.2625 50.8565 56 49 56H7C5.14348 56 3.36301 55.2625 2.05025 53.9497C0.737498 52.637 0 50.8565 0 49V10.5C0 8.64348 0.737498 6.86301 2.05025 5.55025C3.36301 4.2375 5.14348 3.5 7 3.5H10.5V1.75C10.5 1.28587 10.6844 0.840752 11.0126 0.512563C11.3408 0.184374 11.7859 0 12.25 0ZM3.5 14V49C3.5 49.9283 3.86875 50.8185 4.52513 51.4749C5.1815 52.1312 6.07174 52.5 7 52.5H49C49.9283 52.5 50.8185 52.1312 51.4749 51.4749C52.1312 50.8185 52.5 49.9283 52.5 49V14H3.5Z" fill="#C11717"/>
</svg>
