<svg width="24" height="23" viewBox="0 0 24 23" fill="none" xmlns="http://www.w3.org/2000/svg">
<path d="M21.064 2.37L22.846 3.668L20.327 7.1C19.6588 6.74898 18.9493 6.48292 18.215 6.308L21.064 2.37ZM13.1 8.2V10.4H5.4V10.719L10.9 12.281V15.35C10.9 16.329 11.1903 17.286 11.7342 18.1001C12.2781 18.9141 13.0512 19.5485 13.9557 19.9232C14.8602 20.2979 15.8555 20.3959 16.8157 20.2049C17.7759 20.0139 18.6579 19.5424 19.3502 18.8502C20.0424 18.1579 20.5139 17.2759 20.7049 16.3157C20.8959 15.3555 20.7979 14.3602 20.4232 13.4557C20.0485 12.5512 19.4141 11.7781 18.6001 11.2342C17.786 10.6903 16.829 10.4 15.85 10.4H15.3V8.2H15.85C17.2641 8.2 18.6465 8.61934 19.8223 9.40499C20.9981 10.1906 21.9146 11.3073 22.4557 12.6138C22.9969 13.9203 23.1385 15.3579 22.8626 16.7449C22.5867 18.1319 21.9058 19.4059 20.9058 20.4058C19.9059 21.4058 18.6319 22.0867 17.2449 22.3626C15.8579 22.6385 14.4203 22.4969 13.1138 21.9557C11.8073 21.4146 10.6906 20.4981 9.90499 19.3223C9.11934 18.1465 8.7 16.7641 8.7 15.35V13.601L1 11.5V8.2H13.1ZM7.336 2.37L9.965 6H7.248L5.554 3.668L7.336 2.37ZM15.3 0.5V6H13.1V0.5H15.3Z" fill="#C11717" stroke="#C11717" stroke-width="0.5"/>
</svg>
