<svg width="58" height="58" viewBox="0 0 58 58" fill="none" xmlns="http://www.w3.org/2000/svg">
<path d="M42.2159 33.887L42.0035 35.8757L42.0035 35.8757L42.2159 33.887ZM55.9816 48.548L57.9794 48.4535L57.9791 48.4484L55.9816 48.548ZM55.2303 54.2045L53.3289 53.5842L53.3271 53.5898L55.2303 54.2045ZM2.21207 43.0819L4.1737 43.4718L4.1737 43.4717L2.21207 43.0819ZM10.3776 2V0H8.736L8.41597 1.6101L10.3776 2ZM26.4779 2L28.217 1.01234L27.6421 0H26.4779V2ZM31.8446 11.45L33.0129 13.0733L34.4707 12.0241L33.5837 10.4623L31.8446 11.45ZM20.3463 19.7255L18.7629 20.9473L19.9446 22.4788L21.5147 21.3488L20.3463 19.7255ZM22.2913 19.2066C22.0047 18.1399 20.9076 17.5074 19.8409 17.794C18.7741 18.0805 18.1417 19.1776 18.4282 20.2444L22.2913 19.2066ZM24.5464 43.0189C24.8329 44.0856 25.93 44.7181 26.9967 44.4315C28.0635 44.145 28.696 43.0479 28.4094 41.9811L24.5464 43.0189ZM27.5613 45.7294C29.259 39.5444 35.1866 35.1475 42.0035 35.8757L42.4283 31.8983C33.5743 30.9525 25.8971 36.6806 23.7039 44.6706L27.5613 45.7294ZM42.0035 35.8757C48.472 36.5663 53.6568 42.0853 53.9841 48.6476L57.9791 48.4484C57.5551 39.9447 50.8794 32.8007 42.4282 31.8983L42.0035 35.8757ZM53.9839 48.6425C54.0663 50.3848 53.8307 52.0461 53.3289 53.5842L57.1317 54.8248C57.7837 52.8259 58.0848 50.6802 57.9794 48.4535L53.9839 48.6425ZM53.3271 53.5898C53.2628 53.7888 53.0267 54 52.6945 54V58C54.6431 58 56.5001 56.7802 57.1335 54.8192L53.3271 53.5898ZM52.6945 54H12.7363V58H52.6945V54ZM12.7363 54C7.23999 54 3.08827 48.9325 4.1737 43.4718L0.25045 42.6919C-1.32067 50.5962 4.68689 58 12.7363 58V54ZM4.1737 43.4717L12.3392 2.3899L8.41597 1.6101L0.250447 42.692L4.1737 43.4717ZM10.3776 4H26.4779V0H10.3776V4ZM24.7388 2.98766L30.1055 12.4377L33.5837 10.4623L28.217 1.01234L24.7388 2.98766ZM30.6763 9.82671L19.178 18.1022L21.5147 21.3488L33.0129 13.0733L30.6763 9.82671ZM21.9298 18.5037L18.6695 14.2782L15.5026 16.7218L18.7629 20.9473L21.9298 18.5037ZM18.4282 20.2444L24.5464 43.0189L28.4094 41.9811L22.2913 19.2066L18.4282 20.2444Z" fill="#C11717"/>
</svg>
