<svg width="31" height="21" viewBox="0 0 31 21" fill="none" xmlns="http://www.w3.org/2000/svg">
<path d="M30.0605 7.33998L27.1506 1.75766C26.9477 1.37135 26.6021 1.07948 26.1872 0.944159C25.7724 0.808841 25.3211 0.840771 24.9295 1.03315L22.1146 2.44655H20.0598L16.0928 0.653078C15.7325 0.483197 15.3217 0.453558 14.9407 0.569937L9.07335 2.28026L6.3297 0.902501C5.93756 0.713189 5.48739 0.682882 5.07342 0.817923C4.65944 0.952964 4.31373 1.24289 4.10865 1.62701L1.19872 7.22121C1.093 7.41588 1.02784 7.62996 1.00718 7.85052C0.986513 8.07108 1.01077 8.29353 1.07849 8.50445C1.1462 8.71537 1.25597 8.91038 1.40116 9.07769C1.54635 9.245 1.72395 9.38114 1.92323 9.47789L4.79753 10.915L11.235 15.9391C11.4145 16.0881 11.6258 16.1937 11.8526 16.2479L18.7415 17.9701C18.8694 18.0035 19.0012 18.0195 19.1334 18.0177C19.5742 18.0164 19.9967 17.8414 20.3092 17.5307L24.6801 13.1598H24.7276L26.5329 11.0101L29.336 9.60854C29.5347 9.50802 29.7115 9.36916 29.8562 9.19996C30.0009 9.03076 30.1107 8.83458 30.1793 8.62273C30.2458 8.41176 30.2695 8.18965 30.2491 7.96939C30.2288 7.74912 30.1646 7.53515 30.0605 7.33998ZM24.0625 11.6871L19.3709 8.27829C19.2474 8.19026 19.099 8.14395 18.9474 8.14609C18.7957 8.14822 18.6487 8.1987 18.5277 8.29016L17.0074 9.43038C16.4721 9.82947 15.8222 10.045 15.1545 10.045C14.4868 10.045 13.837 9.82947 13.3017 9.43038L12.6603 8.94341C12.6302 8.92467 12.6056 8.89834 12.5889 8.86706C12.5722 8.83579 12.5641 8.80068 12.5653 8.76525C12.5624 8.73206 12.5674 8.69866 12.5798 8.66773C12.5922 8.6368 12.6116 8.60919 12.6365 8.5871L17.2805 3.93121C17.3283 3.89431 17.3865 3.87352 17.4468 3.87182H21.8533L25.2264 10.3331L24.0625 11.6871ZM2.44583 8.0645C2.433 8.03406 2.42739 8.00105 2.42945 7.96808C2.43151 7.93511 2.44118 7.90306 2.45771 7.87446L5.37952 2.28026C5.40103 2.24294 5.4323 2.21217 5.46995 2.19125C5.50761 2.17033 5.55025 2.16004 5.59331 2.16149C5.62686 2.15679 5.66093 2.16531 5.68833 2.18525L8.01627 3.33734L4.8688 9.35912L2.56461 8.19515C2.53621 8.18379 2.51076 8.16613 2.49018 8.14349C2.46961 8.12086 2.45444 8.09385 2.44583 8.0645ZM19.3116 16.5211C19.2822 16.5496 19.2461 16.57 19.2065 16.5804C19.167 16.5908 19.1254 16.5909 19.0859 16.5805L12.1971 14.8702L12.1139 14.8227L6.08028 10.1074L9.45342 3.64615L15.3446 1.93582C15.3999 1.92236 15.458 1.92651 15.5108 1.9477L16.853 2.55344C16.6348 2.63866 16.4367 2.76806 16.271 2.93351L11.627 7.57753C11.4567 7.74501 11.3247 7.94746 11.2403 8.1709C11.1558 8.39433 11.1209 8.63343 11.1378 8.87169C11.1547 9.10995 11.2232 9.3417 11.3384 9.55094C11.4536 9.76018 11.6128 9.94192 11.8051 10.0836L12.4465 10.5706C13.2308 11.1493 14.1798 11.4616 15.1545 11.4616C16.1292 11.4616 17.0783 11.1493 17.8625 10.5706L18.9671 9.73919L23.0885 12.7441L19.3116 16.5211ZM28.8134 8.18327C28.8056 8.21442 28.7908 8.24341 28.7703 8.26809C28.7497 8.29276 28.7238 8.31249 28.6946 8.3258L26.3904 9.47789L23.2429 3.46799L25.5709 2.30402C25.6263 2.27894 25.6891 2.27604 25.7466 2.29593C25.804 2.31581 25.8517 2.35697 25.8797 2.41091L28.8015 8.00511C28.8179 8.03156 28.8276 8.06164 28.8297 8.09271C28.8317 8.12377 28.8261 8.15487 28.8134 8.18327ZM14.4181 19.9536C14.3791 20.1076 14.2905 20.2445 14.166 20.3433C14.0416 20.442 13.8881 20.4971 13.7292 20.5L13.5511 20.4762L9.97602 19.5736C9.7207 19.513 9.48415 19.3906 9.28714 19.2173L6.61476 16.8893C6.53094 16.833 6.46004 16.7596 6.40675 16.6739C6.35346 16.5881 6.319 16.492 6.30564 16.392C6.29228 16.2919 6.30034 16.1901 6.32928 16.0934C6.35821 15.9967 6.40736 15.9072 6.47348 15.8309C6.5396 15.7547 6.62117 15.6933 6.71279 15.6509C6.80441 15.6085 6.904 15.5861 7.00495 15.5851C7.10589 15.5841 7.2059 15.6045 7.29835 15.6451C7.39079 15.6857 7.47357 15.7454 7.54118 15.8204L10.2254 18.1483C10.2531 18.1711 10.2856 18.1873 10.3205 18.1958L13.9074 19.0866C14.0899 19.1341 14.2462 19.2521 14.3419 19.4146C14.4377 19.5771 14.4651 19.771 14.4181 19.9536Z" fill="#C11717" stroke="#C11717"/>
</svg>
