<svg width="58" height="60" viewBox="0 0 58 60" fill="none" xmlns="http://www.w3.org/2000/svg">
<path d="M37.5308 3.07882C34.9735 1.39775 31.9661 0.5 28.8889 0.5C24.7623 0.5 20.8064 2.1128 17.8909 4.98106C14.9757 7.84904 13.3395 11.7371 13.3395 15.7895C13.3395 18.8116 14.2504 21.7666 15.9579 24.2807C17.6655 26.795 20.0935 28.7558 22.9357 29.914C25.778 31.0723 28.9061 31.3754 31.9239 30.7849C34.9418 30.1943 37.7127 28.7368 39.8869 26.5979C42.0609 24.4591 43.5405 21.7351 44.1398 18.7708C44.7391 15.8065 44.4316 12.7339 43.2558 9.94112C42.0799 7.14825 40.088 4.75983 37.5308 3.07882ZM34.5135 24.0844C32.8479 25.1793 30.8905 25.7632 28.8889 25.7632C26.2049 25.7632 23.6293 24.7143 21.729 22.8448C19.8285 20.975 18.7593 18.4373 18.7593 15.7895C18.7593 13.815 19.3544 11.8856 20.4685 10.2453C21.5825 8.60499 23.1651 7.32779 25.0151 6.5739C26.865 5.82004 28.9002 5.62292 30.8636 6.00713C32.827 6.39135 34.6315 7.33992 36.0487 8.73414C37.466 10.1284 38.4321 11.9059 38.8236 13.8422C39.2151 15.7785 39.0141 17.7855 38.2463 19.6089C37.4786 21.4323 36.1791 22.9894 34.5135 24.0844ZM0.499992 56.8421V59.5H5.91975V56.8421C5.91975 52.5192 7.66535 48.375 10.7698 45.3208C13.8741 42.2669 18.0826 40.5526 22.4691 40.5526H35.3086C39.6952 40.5526 43.9037 42.2669 47.0079 45.3208C50.1124 48.375 51.858 52.5192 51.858 56.8421V59.5H57.2778V56.8421C57.2778 51.1147 54.9652 45.6202 50.8461 41.5678C46.7266 37.5151 41.1378 35.2368 35.3086 35.2368H22.4691C16.6399 35.2368 11.0511 37.5151 6.93171 41.5678C2.81258 45.6202 0.499992 51.1147 0.499992 56.8421Z" fill="#C11717" stroke="#0D0133"/>
</svg>
