<svg width="19" height="25" viewBox="0 0 19 25" fill="none" xmlns="http://www.w3.org/2000/svg">
<path d="M16.9136 0H13.1091C12.7727 0 12.4501 0.136237 12.2123 0.378741C11.9745 0.621245 11.8409 0.950151 11.8409 1.2931C11.8409 1.63606 11.9745 1.96496 12.2123 2.20747C12.4501 2.44997 12.7727 2.58621 13.1091 2.58621H13.8488L12.2636 4.21336C10.936 3.15541 9.29853 2.58243 7.61357 2.58621C5.70489 2.58508 3.8655 3.3154 2.46018 4.63235C1.05487 5.9493 0.186274 7.75667 0.0266657 9.69603C-0.132943 11.6354 0.42809 13.5651 1.5985 15.1024C2.76891 16.6398 4.46321 17.6725 6.34538 17.9957V19.3966H4.23173C3.89539 19.3966 3.57282 19.5328 3.33499 19.7753C3.09716 20.0178 2.96354 20.3467 2.96354 20.6897C2.96354 21.0326 3.09716 21.3615 3.33499 21.604C3.57282 21.8465 3.89539 21.9828 4.23173 21.9828H6.34538V23.7069C6.34538 24.0498 6.47899 24.3788 6.71683 24.6213C6.95466 24.8638 7.27723 25 7.61357 25C7.94992 25 8.27248 24.8638 8.51032 24.6213C8.74815 24.3788 8.88176 24.0498 8.88176 23.7069V21.9828H10.9954C11.3318 21.9828 11.6543 21.8465 11.8922 21.604C12.13 21.3615 12.2636 21.0326 12.2636 20.6897C12.2636 20.3467 12.13 20.0178 11.8922 19.7753C11.6543 19.5328 11.3318 19.3966 10.9954 19.3966H8.88176V17.9957C10.1264 17.7808 11.299 17.2535 12.294 16.4614C13.289 15.6693 14.0751 14.6372 14.5815 13.4581C15.0878 12.2791 15.2985 10.9901 15.1946 9.70732C15.0907 8.42455 14.6754 7.18828 13.9862 6.10991L15.6454 4.4181V5.17241C15.6454 5.51537 15.7791 5.84427 16.0169 6.08678C16.2547 6.32928 16.5773 6.46552 16.9136 6.46552C17.25 6.46552 17.5725 6.32928 17.8104 6.08678C18.0482 5.84427 18.1818 5.51537 18.1818 5.17241V1.2931C18.1818 0.950151 18.0482 0.621245 17.8104 0.378741C17.5725 0.136237 17.25 0 16.9136 0ZM7.61357 15.5172C6.61027 15.5172 5.62951 15.2139 4.7953 14.6455C3.96109 14.0772 3.3109 13.2694 2.92695 12.3242C2.54301 11.3791 2.44255 10.3391 2.63829 9.33574C2.83402 8.33239 3.31715 7.41075 4.02659 6.68738C4.73603 5.964 5.63991 5.47138 6.62393 5.2718C7.60794 5.07222 8.62791 5.17465 9.55483 5.56614C10.4818 5.95763 11.274 6.62059 11.8314 7.47119C12.3888 8.32179 12.6863 9.32182 12.6863 10.3448C12.6863 11.7166 12.1519 13.0323 11.2006 14.0023C10.2492 14.9723 8.95895 15.5172 7.61357 15.5172Z" fill="#C11717"/>
</svg>
