<svg width="64" height="58" viewBox="0 0 64 58" fill="none" xmlns="http://www.w3.org/2000/svg">
<path d="M21.2857 56H3.07143C2.78727 56 2.51475 55.8906 2.31381 55.6958C2.11288 55.5011 2 55.237 2 54.9615V16.5385C2 15.9876 2.22576 15.4594 2.62763 15.0699C3.02949 14.6804 3.57454 14.4615 4.14286 14.4615H19.1429C19.7112 14.4615 20.2562 14.6804 20.6581 15.0699C21.0599 15.4594 21.2857 15.9876 21.2857 16.5385V56ZM21.2857 56V4.07692C21.2857 3.52609 21.5115 2.99782 21.9133 2.60832C22.3152 2.21882 22.8602 2 23.4286 2H40.5714C41.1397 2 41.6848 2.21882 42.0867 2.60832C42.4885 2.99782 42.7143 3.52609 42.7143 4.07692V56M21.2857 56H42.7143M42.7143 56V24.8462C42.7143 24.2953 42.94 23.767 43.3419 23.3775C43.7438 22.988 44.2888 22.7692 44.8571 22.7692H59.8571C60.4255 22.7692 60.9705 22.988 61.3724 23.3775C61.7742 23.767 62 24.2953 62 24.8462V54.9615C62 55.237 61.8871 55.5011 61.6862 55.6958C61.4853 55.8906 61.2127 56 60.9286 56H42.7143Z" stroke="#C11717" stroke-width="4" stroke-linecap="round" stroke-linejoin="round"/>
</svg>
