<svg width="26" height="25" viewBox="0 0 26 25" fill="none" xmlns="http://www.w3.org/2000/svg">
<path d="M9.47901 12.45L19.7749 22.746C20.7803 23.7513 22.4034 23.7513 23.4088 22.746C23.6476 22.5075 23.837 22.2242 23.9663 21.9125C24.0955 21.6007 24.1621 21.2665 24.1621 20.929C24.1621 20.5916 24.0955 20.2574 23.9663 19.9456C23.837 19.6338 23.6476 19.3506 23.4088 19.1121L13.1129 8.81617M6.28121 16.0839L1 10.8027M2.3203 12.0866L3.83441 10.5725C4.56118 9.84577 4.96091 8.87674 4.96091 7.84714V6.80544L8.25561 3.48651C8.88106 2.85739 9.62465 2.35803 10.4437 2.01712C11.2627 1.67622 12.141 1.50048 13.0281 1.5H16.7467L15.6323 2.49326C14.8408 3.19507 14.207 4.05667 13.7728 5.02126C13.3385 5.98586 13.1136 7.03155 13.1129 8.0894V9.97901L10.6903 12.4016H7.69842L4.96091 14.7151" stroke="#C11717" stroke-width="2" stroke-linecap="round" stroke-linejoin="round"/>
</svg>
