<svg width="20" height="21" viewBox="0 0 20 21" fill="none" xmlns="http://www.w3.org/2000/svg">
<path d="M16 0.5C17.0609 0.5 18.0783 0.921427 18.8284 1.67157C19.5786 2.42172 20 3.43913 20 4.5V16.5C20 17.5609 19.5786 18.5783 18.8284 19.3284C18.0783 20.0786 17.0609 20.5 16 20.5H4C2.93913 20.5 1.92172 20.0786 1.17157 19.3284C0.421427 18.5783 0 17.5609 0 16.5V4.5C0 3.43913 0.421427 2.42172 1.17157 1.67157C1.92172 0.921427 2.93913 0.5 4 0.5L16 0.5ZM16 2.5H4C3.49542 2.49984 3.00943 2.69041 2.63945 3.0335C2.26947 3.37659 2.04284 3.84684 2.005 4.35L2 4.5V16.5C1.99984 17.0046 2.19041 17.4906 2.5335 17.8605C2.87659 18.2305 3.34684 18.4572 3.85 18.495L4 18.5H16C16.5046 18.5002 16.9906 18.3096 17.3605 17.9665C17.7305 17.6234 17.9572 17.1532 17.995 16.65L18 16.5V4.5C18.0002 3.99542 17.8096 3.50943 17.4665 3.13945C17.1234 2.76947 16.6532 2.54284 16.15 2.505L16 2.5ZM15 13.5C15.5304 13.5 16.0391 13.7107 16.4142 14.0858C16.7893 14.4609 17 14.9696 17 15.5C17 16.0304 16.7893 16.5391 16.4142 16.9142C16.0391 17.2893 15.5304 17.5 15 17.5C14.4696 17.5 13.9609 17.2893 13.5858 16.9142C13.2107 16.5391 13 16.0304 13 15.5C13 14.9696 13.2107 14.4609 13.5858 14.0858C13.9609 13.7107 14.4696 13.5 15 13.5ZM10 8.5C10.5304 8.5 11.0391 8.71071 11.4142 9.08579C11.7893 9.46086 12 9.96957 12 10.5C12 11.0304 11.7893 11.5391 11.4142 11.9142C11.0391 12.2893 10.5304 12.5 10 12.5C9.46957 12.5 8.96086 12.2893 8.58579 11.9142C8.21071 11.5391 8 11.0304 8 10.5C8 9.96957 8.21071 9.46086 8.58579 9.08579C8.96086 8.71071 9.46957 8.5 10 8.5ZM5 3.5C5.53043 3.5 6.03914 3.71071 6.41421 4.08579C6.78929 4.46086 7 4.96957 7 5.5C7 6.03043 6.78929 6.53914 6.41421 6.91421C6.03914 7.28929 5.53043 7.5 5 7.5C4.46957 7.5 3.96086 7.28929 3.58579 6.91421C3.21071 6.53914 3 6.03043 3 5.5C3 4.96957 3.21071 4.46086 3.58579 4.08579C3.96086 3.71071 4.46957 3.5 5 3.5Z" fill="#C11717"/>
</svg>
